<mxfile host="app.diagrams.net" agent="Mozilla/5.0 (Windows NT 10.0; Win64; x64) AppleWebKit/537.36 (KHTML, like Gecko) Chrome/131.0.0.0 Safari/537.36" version="25.0.3">
  <diagram name="PÃ¡gina-1" id="wLnwi9tyqJbmaf647Fxh">
    <mxGraphModel dx="2037" dy="1616" grid="1" gridSize="10" guides="1" tooltips="1" connect="1" arrows="1" fold="1" page="1" pageScale="1" pageWidth="827" pageHeight="1169" math="0" shadow="0">
      <root>
        <mxCell id="0" />
        <mxCell id="1" parent="0" />
        <mxCell id="lxVNvLhR-80-rWLTvQvM-15" style="edgeStyle=orthogonalEdgeStyle;rounded=0;orthogonalLoop=1;jettySize=auto;html=1;exitX=0.5;exitY=0.5;exitDx=0;exitDy=0;exitPerimeter=0;entryX=0.5;entryY=0;entryDx=0;entryDy=0;fillColor=#FF0000;" edge="1" parent="1" source="lxVNvLhR-80-rWLTvQvM-1" target="lxVNvLhR-80-rWLTvQvM-4">
          <mxGeometry relative="1" as="geometry" />
        </mxCell>
        <mxCell id="lxVNvLhR-80-rWLTvQvM-23" style="edgeStyle=orthogonalEdgeStyle;rounded=0;orthogonalLoop=1;jettySize=auto;html=1;exitX=0.5;exitY=0.5;exitDx=0;exitDy=0;exitPerimeter=0;entryX=0.5;entryY=0;entryDx=0;entryDy=0;" edge="1" parent="1" source="lxVNvLhR-80-rWLTvQvM-1" target="lxVNvLhR-80-rWLTvQvM-5">
          <mxGeometry relative="1" as="geometry" />
        </mxCell>
        <mxCell id="lxVNvLhR-80-rWLTvQvM-1" value="Usuario" style="shape=umlActor;verticalLabelPosition=bottom;verticalAlign=top;html=1;outlineConnect=0;fillColor=#000000;" vertex="1" parent="1">
          <mxGeometry x="444" y="-50" width="30" height="60" as="geometry" />
        </mxCell>
        <mxCell id="lxVNvLhR-80-rWLTvQvM-16" style="edgeStyle=orthogonalEdgeStyle;rounded=0;orthogonalLoop=1;jettySize=auto;html=1;exitX=0;exitY=0.5;exitDx=0;exitDy=0;entryX=0.5;entryY=0;entryDx=0;entryDy=0;" edge="1" parent="1" source="lxVNvLhR-80-rWLTvQvM-4" target="lxVNvLhR-80-rWLTvQvM-6">
          <mxGeometry relative="1" as="geometry" />
        </mxCell>
        <mxCell id="lxVNvLhR-80-rWLTvQvM-17" style="edgeStyle=orthogonalEdgeStyle;rounded=0;orthogonalLoop=1;jettySize=auto;html=1;exitX=0.5;exitY=1;exitDx=0;exitDy=0;entryX=0.5;entryY=0;entryDx=0;entryDy=0;" edge="1" parent="1" source="lxVNvLhR-80-rWLTvQvM-4" target="lxVNvLhR-80-rWLTvQvM-8">
          <mxGeometry relative="1" as="geometry" />
        </mxCell>
        <mxCell id="lxVNvLhR-80-rWLTvQvM-28" style="edgeStyle=orthogonalEdgeStyle;rounded=0;orthogonalLoop=1;jettySize=auto;html=1;exitX=1;exitY=0.5;exitDx=0;exitDy=0;entryX=0;entryY=0.5;entryDx=0;entryDy=0;" edge="1" parent="1" source="lxVNvLhR-80-rWLTvQvM-4" target="lxVNvLhR-80-rWLTvQvM-25">
          <mxGeometry relative="1" as="geometry" />
        </mxCell>
        <mxCell id="lxVNvLhR-80-rWLTvQvM-4" value="Iniciar Sesion" style="ellipse;whiteSpace=wrap;html=1;fillColor=#E6E6E6;" vertex="1" parent="1">
          <mxGeometry x="120" y="40" width="120" height="80" as="geometry" />
        </mxCell>
        <mxCell id="lxVNvLhR-80-rWLTvQvM-30" style="edgeStyle=orthogonalEdgeStyle;rounded=0;orthogonalLoop=1;jettySize=auto;html=1;exitX=0.5;exitY=1;exitDx=0;exitDy=0;exitPerimeter=0;" edge="1" parent="1" source="lxVNvLhR-80-rWLTvQvM-5" target="lxVNvLhR-80-rWLTvQvM-25">
          <mxGeometry relative="1" as="geometry" />
        </mxCell>
        <mxCell id="lxVNvLhR-80-rWLTvQvM-31" style="edgeStyle=orthogonalEdgeStyle;rounded=0;orthogonalLoop=1;jettySize=auto;html=1;exitX=0.5;exitY=1;exitDx=0;exitDy=0;entryX=0.5;entryY=0;entryDx=0;entryDy=0;" edge="1" parent="1" source="lxVNvLhR-80-rWLTvQvM-5" target="lxVNvLhR-80-rWLTvQvM-24">
          <mxGeometry relative="1" as="geometry" />
        </mxCell>
        <mxCell id="lxVNvLhR-80-rWLTvQvM-5" value="Registrarse" style="ellipse;whiteSpace=wrap;html=1;fillColor=#B3B3B3;" vertex="1" parent="1">
          <mxGeometry x="680" y="30" width="120" height="80" as="geometry" />
        </mxCell>
        <mxCell id="lxVNvLhR-80-rWLTvQvM-18" style="edgeStyle=orthogonalEdgeStyle;rounded=0;orthogonalLoop=1;jettySize=auto;html=1;exitX=0;exitY=0.5;exitDx=0;exitDy=0;entryX=1;entryY=0.5;entryDx=0;entryDy=0;" edge="1" parent="1" source="lxVNvLhR-80-rWLTvQvM-6" target="lxVNvLhR-80-rWLTvQvM-7">
          <mxGeometry relative="1" as="geometry" />
        </mxCell>
        <mxCell id="lxVNvLhR-80-rWLTvQvM-6" value="Entrar Perfil del Usuario" style="ellipse;whiteSpace=wrap;html=1;fillColor=#E6E6E6;" vertex="1" parent="1">
          <mxGeometry x="40" y="190" width="120" height="80" as="geometry" />
        </mxCell>
        <mxCell id="lxVNvLhR-80-rWLTvQvM-7" value="Modificar/Actualizar sus datos" style="ellipse;whiteSpace=wrap;html=1;fillColor=#E6E6E6;" vertex="1" parent="1">
          <mxGeometry x="-120" y="190" width="120" height="80" as="geometry" />
        </mxCell>
        <mxCell id="lxVNvLhR-80-rWLTvQvM-19" style="edgeStyle=orthogonalEdgeStyle;rounded=0;orthogonalLoop=1;jettySize=auto;html=1;exitX=0.5;exitY=1;exitDx=0;exitDy=0;entryX=0.5;entryY=0;entryDx=0;entryDy=0;" edge="1" parent="1" source="lxVNvLhR-80-rWLTvQvM-8" target="lxVNvLhR-80-rWLTvQvM-9">
          <mxGeometry relative="1" as="geometry" />
        </mxCell>
        <mxCell id="lxVNvLhR-80-rWLTvQvM-20" style="edgeStyle=orthogonalEdgeStyle;rounded=0;orthogonalLoop=1;jettySize=auto;html=1;exitX=0.5;exitY=1;exitDx=0;exitDy=0;entryX=0.5;entryY=0;entryDx=0;entryDy=0;" edge="1" parent="1" source="lxVNvLhR-80-rWLTvQvM-8" target="lxVNvLhR-80-rWLTvQvM-10">
          <mxGeometry relative="1" as="geometry" />
        </mxCell>
        <mxCell id="lxVNvLhR-80-rWLTvQvM-22" style="edgeStyle=orthogonalEdgeStyle;rounded=0;orthogonalLoop=1;jettySize=auto;html=1;exitX=1;exitY=0.5;exitDx=0;exitDy=0;entryX=0;entryY=0.5;entryDx=0;entryDy=0;" edge="1" parent="1" source="lxVNvLhR-80-rWLTvQvM-8" target="lxVNvLhR-80-rWLTvQvM-14">
          <mxGeometry relative="1" as="geometry" />
        </mxCell>
        <mxCell id="lxVNvLhR-80-rWLTvQvM-8" value="Entrar al perfil de su/s Mascota/s" style="ellipse;whiteSpace=wrap;html=1;fillColor=#E6E6E6;" vertex="1" parent="1">
          <mxGeometry x="200" y="170" width="120" height="80" as="geometry" />
        </mxCell>
        <mxCell id="lxVNvLhR-80-rWLTvQvM-9" value="Rastrear mascota" style="ellipse;whiteSpace=wrap;html=1;fillColor=#E6E6E6;" vertex="1" parent="1">
          <mxGeometry x="170" y="310" width="100" height="60" as="geometry" />
        </mxCell>
        <mxCell id="lxVNvLhR-80-rWLTvQvM-21" style="edgeStyle=orthogonalEdgeStyle;rounded=0;orthogonalLoop=1;jettySize=auto;html=1;exitX=0.5;exitY=1;exitDx=0;exitDy=0;" edge="1" parent="1" source="lxVNvLhR-80-rWLTvQvM-10" target="lxVNvLhR-80-rWLTvQvM-12">
          <mxGeometry relative="1" as="geometry" />
        </mxCell>
        <mxCell id="lxVNvLhR-80-rWLTvQvM-10" value="Gestionar vacunas&lt;span style=&quot;color: rgba(0, 0, 0, 0); font-family: monospace; font-size: 0px; text-align: start; text-wrap-mode: nowrap;&quot;&gt;%3CmxGraphModel%3E%3Croot%3E%3CmxCell%20id%3D%220%22%2F%3E%3CmxCell%20id%3D%221%22%20parent%3D%220%22%2F%3E%3CmxCell%20id%3D%222%22%20value%3D%22Rastrear%20mascota%22%20style%3D%22ellipse%3BwhiteSpace%3Dwrap%3Bhtml%3D1%3B%22%20vertex%3D%221%22%20parent%3D%221%22%3E%3CmxGeometry%20x%3D%22190%22%20y%3D%22280%22%20width%3D%22100%22%20height%3D%2260%22%20as%3D%22geometry%22%2F%3E%3C%2FmxCell%3E%3C%2Froot%3E%3C%2FmxGraphModel%3E&lt;/span&gt;" style="ellipse;whiteSpace=wrap;html=1;fillColor=#E6E6E6;" vertex="1" parent="1">
          <mxGeometry x="275" y="310" width="100" height="60" as="geometry" />
        </mxCell>
        <mxCell id="lxVNvLhR-80-rWLTvQvM-12" value="Modificar/Actualizar sus vacunas" style="ellipse;whiteSpace=wrap;html=1;fillColor=#E6E6E6;" vertex="1" parent="1">
          <mxGeometry x="265" y="400" width="120" height="80" as="geometry" />
        </mxCell>
        <mxCell id="lxVNvLhR-80-rWLTvQvM-14" value="Modificar/Actualizar su hoja de vida" style="ellipse;whiteSpace=wrap;html=1;fillColor=#E6E6E6;" vertex="1" parent="1">
          <mxGeometry x="354" y="200" width="120" height="80" as="geometry" />
        </mxCell>
        <mxCell id="lxVNvLhR-80-rWLTvQvM-24" value="Crea su perfil de Usuario" style="ellipse;whiteSpace=wrap;html=1;fillColor=#CCCCCC;" vertex="1" parent="1">
          <mxGeometry x="780" y="170" width="120" height="80" as="geometry" />
        </mxCell>
        <mxCell id="lxVNvLhR-80-rWLTvQvM-29" style="edgeStyle=orthogonalEdgeStyle;rounded=0;orthogonalLoop=1;jettySize=auto;html=1;exitX=0.5;exitY=1;exitDx=0;exitDy=0;entryX=0.5;entryY=0;entryDx=0;entryDy=0;" edge="1" parent="1" source="lxVNvLhR-80-rWLTvQvM-25" target="lxVNvLhR-80-rWLTvQvM-26">
          <mxGeometry relative="1" as="geometry" />
        </mxCell>
        <mxCell id="lxVNvLhR-80-rWLTvQvM-25" value="Agrega sus mascotas" style="ellipse;whiteSpace=wrap;html=1;fillColor=default;" vertex="1" parent="1">
          <mxGeometry x="520" y="100" width="120" height="80" as="geometry" />
        </mxCell>
        <mxCell id="lxVNvLhR-80-rWLTvQvM-36" style="edgeStyle=orthogonalEdgeStyle;rounded=0;orthogonalLoop=1;jettySize=auto;html=1;exitX=0.5;exitY=1;exitDx=0;exitDy=0;entryX=0.5;entryY=0;entryDx=0;entryDy=0;" edge="1" parent="1" source="lxVNvLhR-80-rWLTvQvM-26" target="lxVNvLhR-80-rWLTvQvM-34">
          <mxGeometry relative="1" as="geometry" />
        </mxCell>
        <mxCell id="lxVNvLhR-80-rWLTvQvM-37" style="edgeStyle=orthogonalEdgeStyle;rounded=0;orthogonalLoop=1;jettySize=auto;html=1;exitX=0.5;exitY=1;exitDx=0;exitDy=0;" edge="1" parent="1" source="lxVNvLhR-80-rWLTvQvM-26" target="lxVNvLhR-80-rWLTvQvM-35">
          <mxGeometry relative="1" as="geometry" />
        </mxCell>
        <mxCell id="lxVNvLhR-80-rWLTvQvM-26" value="Crea perfil de sus mascotas" style="ellipse;whiteSpace=wrap;html=1;fillColor=#CCCCCC;" vertex="1" parent="1">
          <mxGeometry x="520" y="220" width="120" height="80" as="geometry" />
        </mxCell>
        <mxCell id="lxVNvLhR-80-rWLTvQvM-34" value="Registra sus vacunas" style="ellipse;whiteSpace=wrap;html=1;fillColor=#CCCCCC;" vertex="1" parent="1">
          <mxGeometry x="450" y="340" width="120" height="80" as="geometry" />
        </mxCell>
        <mxCell id="lxVNvLhR-80-rWLTvQvM-35" value="Vincula el dispositivo gps" style="ellipse;whiteSpace=wrap;html=1;fillColor=#CCCCCC;" vertex="1" parent="1">
          <mxGeometry x="590" y="340" width="120" height="80" as="geometry" />
        </mxCell>
      </root>
    </mxGraphModel>
  </diagram>
</mxfile>
